<svg width="4206" height="2181" viewBox="0 0 4206 2181" fill="none" xmlns="http://www.w3.org/2000/svg">
<path d="M0.0774221 1879.87C0.0774221 1879.87 0.0772217 1719.62 0.0773595 964.299C0.0773595 409.522 0.0771881 883.706 0.077321 7.14967e-06C869.157 5.71974e-05 4206 0 4206 0C4206 658.797 4206 184.613 4206 924.002C4206 1365.39 4206 1763.67 4206 1763.67L0.0774221 1879.87Z" fill="#C9C5C2"/>
<path d="M4163.84 1652.69C4163.84 1652.69 3726.98 1205.93 2425.99 1462.85C1125.01 1719.78 388.892 1519.62 184.314 1519.62C-31.6931 1584.67 1.88931 1627.78 1.88925 1754.84C1.88917 1931.41 1.88925 2180.29 1.88925 2180.29C1.88925 2180.29 519.442 2180.29 1188.67 2180.29C1857.91 2180.29 2084.4 2180.29 2084.4 2180.29H2396.98C2396.98 2180.29 2770.03 2180.29 3038.54 2180.29C3307.06 2180.29 3380.85 2180.29 3380.85 2180.29H3833.83C3957.84 2180.29 4196.63 2180.29 4196.63 2180.29V2064.09V2027.54C4196.63 2027.54 4196.63 2008.8 4196.63 1967.56C4196.63 1926.33 4196.63 1934.77 4196.63 1896.34C4196.63 1857.92 4196.63 1827 4196.63 1797.01C4196.63 1767.02 4196.63 1733.28 4196.63 1722.98C4196.63 1722.98 4194.58 1703.3 4191.51 1695.8C4188.43 1688.3 4191.51 1695.8 4186.38 1683.62C4181.26 1671.43 4163.84 1652.69 4163.84 1652.69Z" fill="#343435"/>
<path d="M3627.88 629L3589.34 811.11L3749.38 765.82L3589.34 852.035L3730.93 900.765L3627.88 879.212L3840.59 1018.84L3627.88 919.508L3526.99 988.535L3480.87 879.212L3439.87 833.293L3262.84 811.11H3464.63L3526.99 879.212L3627.88 629Z" fill="#3E3D3D"/>
<path d="M3533.13 937.622H3490.25L3330.21 892.331L3490.25 978.546L3348.66 1027.28L3451.71 1005.72L3239 1145.35L3510.59 1027.28L3678.66 1070.38L3584.38 978.546H3655.09L3533.13 937.622Z" fill="#131313"/>
<path d="M3532.11 1608.4V1019.78" stroke="black" stroke-width="7"/>
<path d="M3246.34 1344L3223.22 1453.27L3319.25 1426.1L3223.22 1477.83L3308.18 1507.07L3246.34 1494.14L3373.98 1577.92L3246.34 1518.32L3185.8 1559.74L3158.13 1494.14L3133.53 1466.58L3027.31 1453.27H3148.39L3185.8 1494.14L3246.34 1344Z" fill="#3E3D3D"/>
<path d="M3189.49 1529.19H3163.76L3067.73 1502.01L3163.76 1553.74L3078.8 1582.98L3140.64 1570.05L3013 1653.84L3175.96 1582.98L3276.82 1608.85L3220.24 1553.74H3262.67L3189.49 1529.19Z" fill="#534B4B"/>
<path d="M3188.88 1931.68V1578.49" stroke="black" stroke-width="7"/>
<path d="M580.344 1144L557.22 1253.27L653.25 1226.1L557.22 1277.83L642.18 1307.07L580.344 1294.14L707.981 1377.92L580.344 1318.32L519.803 1359.74L492.13 1294.14L467.532 1266.58L361.306 1253.27H482.387L519.803 1294.14L580.344 1144Z" fill="#3E3D3D"/>
<path d="M522 1537L522.878 1378.49" stroke="black" stroke-width="7"/>
<path d="M523.494 1329.19H497.762L401.731 1302.01L497.762 1353.74L412.801 1382.98L474.637 1370.05L347 1453.84L509.964 1382.98L610.818 1408.85L554.242 1353.74H596.674L523.494 1329.19Z" fill="#131313"/>
<path d="M3898.34 1186L3875.22 1295.27L3971.25 1268.1L3875.22 1319.83L3960.18 1349.07L3898.34 1336.14L4025.98 1419.92L3898.34 1360.32L3837.8 1401.74L3810.13 1336.14L3785.53 1308.58L3679.31 1295.27H3800.39L3837.8 1336.14L3898.34 1186Z" fill="#3E3D3D"/>
<path d="M3841.49 1371.19H3815.76L3719.73 1344.01L3815.76 1395.74L3730.8 1424.98L3792.64 1412.05L3665 1495.84L3827.96 1424.98L3928.82 1450.85L3872.24 1395.74H3914.67L3841.49 1371.19Z" fill="#131313"/>
<path d="M3840.88 1773.68V1420.49" stroke="black" stroke-width="7"/>
<path d="M500.214 1814.27L513.955 1879.2L456.891 1863.05L513.955 1893.79L463.469 1911.17L500.214 1903.48L424.368 1953.27L500.214 1917.85L536.189 1942.46L552.633 1903.48L567.25 1887.11L630.373 1879.2H558.423L536.189 1903.48L500.214 1814.27Z" fill="#3E3D3D"/>
<path d="M511.402 2000.72H526.692L583.756 1984.57L526.692 2015.31L577.179 2032.69L540.434 2025L616.279 2074.79L519.441 2032.69L459.511 2048.06L493.13 2015.31H467.916L511.402 2000.72Z" fill="#131313"/>
<path d="M511.767 2075.98L511.887 2022.75" stroke="black" stroke-width="7"/>
<path d="M558.738 1859.25L542.605 1935.49L609.603 1916.53L542.605 1952.62L601.88 1973.02L558.738 1964L647.788 2022.45L558.738 1980.87L516.501 2009.76L497.194 1964L480.032 1944.77L405.921 1935.49H490.396L516.501 1964L558.738 1859.25Z" fill="#565656"/>
<path d="M0.0773074 1814.2C0.0773074 1814.2 0.0772244 2004.24 0.0773074 1549.86C0.0773074 1549.86 137.166 1164.57 385.297 1499.25C385.297 1499.25 612.808 1473.92 617.984 1639.85C617.984 1639.85 667.112 1676.37 742.091 1684.86C817.07 1693.35 822.246 1760.79 806.719 1780.48C791.191 1800.17 736.943 1805.77 736.943 1805.77L0.0773074 1814.2Z" fill="#9F9380"/>
<path d="M301.308 1763.66L281.613 1856.74L363.404 1833.59L281.613 1877.65L353.976 1902.56L301.308 1891.54L410.02 1962.9L301.308 1912.13L249.744 1947.41L226.174 1891.54L205.223 1868.07L114.748 1856.74H217.876L249.744 1891.54L301.308 1763.66Z" fill="#3E3D3D"/>
<path d="M252.887 1921.39H230.971L149.179 1898.24L230.971 1942.31L158.607 1967.21L211.275 1956.2L102.563 2027.56L241.364 1967.21L327.264 1989.24L279.076 1942.31H315.217L252.887 1921.39Z" fill="#131313"/>
<path d="M252.363 2029.26L252.192 1952.96" stroke="black" stroke-width="7"/>
<path d="M205.604 1656.83L228.728 1766.11L132.698 1738.93L228.728 1790.66L143.767 1819.9L205.604 1806.97L77.9666 1890.75L205.604 1831.15L266.144 1872.57L293.818 1806.97L318.416 1779.42L424.642 1766.11H303.561L266.144 1806.97L205.604 1656.83Z" fill="#565656"/>
</svg>
