<svg width="4206" height="1807" viewBox="0 0 4206 1807" fill="none" xmlns="http://www.w3.org/2000/svg">
<path d="M0.000151593 1506C0.000151593 1506 -4.88003e-05 1377.62 8.90399e-05 772.52C8.90399e-05 328.077 -8.24124e-05 707.955 5.05139e-05 5.72775e-06C869.096 4.5822e-05 4206 0 4206 0C4206 527.776 4206 147.897 4206 740.237C4206 1093.84 4206 1412.91 4206 1412.91L0.000151593 1506Z" fill="#C9C5C2"/>
<path d="M4163.84 1278.69C4163.84 1278.69 3726.98 831.925 2425.99 1088.85C1125.01 1345.78 388.892 1145.62 184.314 1145.62C-31.6931 1210.67 1.88931 1253.78 1.88925 1380.84C1.88917 1557.41 1.88925 1806.29 1.88925 1806.29C1.88925 1806.29 519.442 1806.29 1188.67 1806.29C1857.91 1806.29 2084.4 1806.29 2084.4 1806.29H2396.98C2396.98 1806.29 2770.03 1806.29 3038.54 1806.29C3307.06 1806.29 3380.85 1806.29 3380.85 1806.29H3833.83C3957.84 1806.29 4196.63 1806.29 4196.63 1806.29V1690.09V1653.54C4196.63 1653.54 4196.63 1634.8 4196.63 1593.56C4196.63 1552.33 4196.63 1560.77 4196.63 1522.34C4196.63 1483.92 4196.63 1453 4196.63 1423.01C4196.63 1393.02 4196.63 1359.28 4196.63 1348.98C4196.63 1348.98 4194.58 1329.3 4191.51 1321.8C4188.43 1314.3 4191.51 1321.8 4186.38 1309.62C4181.26 1297.43 4163.84 1278.69 4163.84 1278.69Z" fill="#343435"/>
<path d="M3627.88 255L3589.34 437.11L3749.38 391.82L3589.34 478.035L3730.93 526.765L3627.88 505.212L3840.59 644.843L3627.88 545.508L3526.99 614.535L3480.87 505.212L3439.87 459.293L3262.84 437.11H3464.63L3526.99 505.212L3627.88 255Z" fill="#3E3D3D"/>
<path d="M3533.13 563.622H3490.25L3330.21 518.331L3490.25 604.546L3348.66 653.277L3451.71 631.723L3239 771.354L3510.59 653.277L3678.66 696.384L3584.38 604.546H3655.09L3533.13 563.622Z" fill="#131313"/>
<path d="M3532.11 1234.4V645.78" stroke="black" stroke-width="7"/>
<path d="M3246.34 970L3223.22 1079.27L3319.25 1052.1L3223.22 1103.83L3308.18 1133.07L3246.34 1120.14L3373.98 1203.92L3246.34 1144.32L3185.8 1185.74L3158.13 1120.14L3133.53 1092.58L3027.31 1079.27H3148.39L3185.8 1120.14L3246.34 970Z" fill="#3E3D3D"/>
<path d="M3189.49 1155.19H3163.76L3067.73 1128.01L3163.76 1179.74L3078.8 1208.98L3140.64 1196.05L3013 1279.84L3175.96 1208.98L3276.82 1234.85L3220.24 1179.74H3262.67L3189.49 1155.19Z" fill="#534B4B"/>
<path d="M3188.88 1557.68V1204.49" stroke="black" stroke-width="7"/>
<path d="M580.344 770L557.22 879.274L653.25 852.098L557.22 903.831L642.18 933.071L580.344 920.138L707.981 1003.92L580.344 944.317L519.803 985.737L492.13 920.138L467.532 892.585L361.306 879.274H482.387L519.803 920.138L580.344 770Z" fill="#3E3D3D"/>
<path d="M522 1163L522.878 1004.49" stroke="black" stroke-width="7"/>
<path d="M523.494 955.187H497.762L401.731 928.01L497.762 979.743L412.801 1008.98L474.637 996.05L347 1079.84L509.964 1008.98L610.818 1034.85L554.242 979.743H596.674L523.494 955.187Z" fill="#131313"/>
<path d="M3898.34 812L3875.22 921.274L3971.25 894.098L3875.22 945.831L3960.18 975.071L3898.34 962.138L4025.98 1045.92L3898.34 986.317L3837.8 1027.74L3810.13 962.138L3785.53 934.585L3679.31 921.274H3800.39L3837.8 962.138L3898.34 812Z" fill="#3E3D3D"/>
<path d="M3841.49 997.187H3815.76L3719.73 970.01L3815.76 1021.74L3730.8 1050.98L3792.64 1038.05L3665 1121.84L3827.96 1050.98L3928.82 1076.85L3872.24 1021.74H3914.67L3841.49 997.187Z" fill="#131313"/>
<path d="M3840.88 1399.68V1046.49" stroke="black" stroke-width="7"/>
<path d="M500.214 1440.27L513.955 1505.2L456.891 1489.05L513.955 1519.79L463.469 1537.17L500.214 1529.48L424.368 1579.27L500.214 1543.85L536.189 1568.46L552.633 1529.48L567.25 1513.11L630.373 1505.2H558.423L536.189 1529.48L500.214 1440.27Z" fill="#3E3D3D"/>
<path d="M511.402 1626.72H526.692L583.756 1610.57L526.692 1641.31L577.179 1658.69L540.434 1651L616.279 1700.79L519.441 1658.69L459.511 1674.06L493.13 1641.31H467.916L511.402 1626.72Z" fill="#131313"/>
<path d="M511.767 1701.98L511.887 1648.75" stroke="black" stroke-width="7"/>
<path d="M558.738 1485.25L542.605 1561.49L609.603 1542.53L542.605 1578.62L601.88 1599.02L558.738 1590L647.788 1648.45L558.738 1606.87L516.501 1635.76L497.194 1590L480.032 1570.77L405.921 1561.49H490.396L516.501 1590L558.738 1485.25Z" fill="#565656"/>
<path d="M0.0773074 1440.2C0.0773074 1440.2 0.0772244 1630.24 0.0773074 1175.86C0.0773074 1175.86 137.166 790.568 385.297 1125.25C385.297 1125.25 612.808 1099.92 617.984 1265.85C617.984 1265.85 667.112 1302.37 742.091 1310.86C817.07 1319.35 822.246 1386.79 806.719 1406.48C791.191 1426.17 736.943 1431.77 736.943 1431.77L0.0773074 1440.2Z" fill="#9F9380"/>
<path d="M301.308 1389.66L281.613 1482.74L363.404 1459.59L281.613 1503.65L353.976 1528.56L301.308 1517.54L410.02 1588.9L301.308 1538.13L249.744 1573.41L226.174 1517.54L205.223 1494.07L114.748 1482.74H217.876L249.744 1517.54L301.308 1389.66Z" fill="#3E3D3D"/>
<path d="M252.887 1547.39H230.971L149.179 1524.24L230.971 1568.31L158.607 1593.21L211.275 1582.2L102.563 1653.56L241.364 1593.21L327.264 1615.24L279.076 1568.31H315.217L252.887 1547.39Z" fill="#131313"/>
<path d="M252.363 1655.26L252.192 1578.96" stroke="black" stroke-width="7"/>
<path d="M205.604 1282.83L228.728 1392.11L132.698 1364.93L228.728 1416.66L143.767 1445.9L205.604 1432.97L77.9666 1516.75L205.604 1457.15L266.144 1498.57L293.818 1432.97L318.416 1405.42L424.642 1392.11H303.561L266.144 1432.97L205.604 1282.83Z" fill="#565656"/>
</svg>
