<svg width="2053" height="1164" viewBox="0 0 2053 1164" fill="none" xmlns="http://www.w3.org/2000/svg">
<path d="M1.00007 1003C1.00007 1003 0.999976 917.5 1.00004 514.5C1.00004 218.5 0.99996 471.5 1.00002 3.8147e-06C425 3.05176e-05 2052.95 0 2052.95 0C2052.95 351.5 2052.95 98.5001 2052.95 493C2052.95 728.5 2052.95 941.001 2052.95 941.001L1.00007 1003Z" fill="#C9C5C2"/>
<path d="M2032.38 881.791C2032.38 881.791 1819.25 643.42 1184.54 780.503C549.822 917.586 190.692 810.791 90.8839 810.791C-14.4999 845.5 1.88402 868.5 1.88399 936.291C1.88395 1030.5 1.88399 1163.29 1.88399 1163.29C1.88399 1163.29 254.384 1163.29 580.884 1163.29C907.384 1163.29 1017.88 1163.29 1017.88 1163.29H1170.38C1170.38 1163.29 1352.38 1163.29 1483.38 1163.29C1614.38 1163.29 1650.38 1163.29 1650.38 1163.29H1871.38C1931.88 1163.29 2048.38 1163.29 2048.38 1163.29V1101.29V1081.79C2048.38 1081.79 2048.38 1071.79 2048.38 1049.79C2048.38 1027.79 2048.38 1032.29 2048.38 1011.79C2048.38 991.291 2048.38 974.791 2048.38 958.791C2048.38 942.791 2048.38 924.791 2048.38 919.291C2048.38 919.291 2047.38 908.791 2045.88 904.791C2044.38 900.791 2045.88 904.791 2043.38 898.291C2040.88 891.791 2032.38 881.791 2032.38 881.791Z" fill="#343435"/>
<path d="M1.00002 967.964C1.00002 967.964 0.999978 1069.36 1.00002 826.923C1.00002 826.923 67.8818 621.353 188.938 799.92C188.938 799.92 299.934 786.41 302.46 874.938C302.46 874.938 326.428 894.424 363.008 898.954C399.588 903.484 402.113 939.467 394.538 949.973C386.963 960.479 360.497 963.467 360.497 963.467L1.00002 967.964Z" fill="#9F9380"/>
<path d="M1589.72 335L1570.92 432.165L1649 408L1570.92 454L1640 480L1589.72 468.5L1693.5 543L1589.72 490L1540.5 526.829L1518 468.5L1498 444L1411.63 432.165H1510.08L1540.5 468.5L1589.72 335Z" fill="#3E3D3D"/>
<path d="M1543.5 499.665H1522.58L1444.5 475.5L1522.58 521.5L1453.5 547.5L1503.78 536L1400 610.5L1532.5 547.5L1614.5 570.5L1568.5 521.5H1603L1543.5 499.665Z" fill="#131313"/>
<path d="M1543 857.557V543.5" stroke="black" stroke-width="7"/>
<path d="M1337.84 578L1326.56 636.303L1373.41 621.803L1326.56 649.405L1368.01 665.006L1337.84 658.106L1400.11 702.809L1337.84 671.007L1308.31 693.106L1294.81 658.106L1282.8 643.405L1230.98 636.303H1290.05L1308.31 658.106L1337.84 578Z" fill="#3E3D3D"/>
<path d="M1310.11 676.806H1297.55L1250.7 662.306L1297.55 689.908L1256.1 705.509L1286.27 698.609L1224 743.312L1303.51 705.509L1352.71 719.31L1325.11 689.908H1345.81L1310.11 676.806Z" fill="#131313"/>
<path d="M1309.81 891.557V703.109" stroke="black" stroke-width="7"/>
<path d="M1757.84 614L1746.56 672.303L1793.41 657.803L1746.56 685.405L1788.01 701.006L1757.84 694.106L1820.11 738.809L1757.84 707.007L1728.31 729.106L1714.81 694.106L1702.8 679.405L1650.98 672.303H1710.05L1728.31 694.106L1757.84 614Z" fill="#3E3D3D"/>
<path d="M1730.11 712.806H1717.55L1670.7 698.306L1717.55 725.908L1676.1 741.509L1706.27 734.609L1644 779.312L1723.51 741.509L1772.71 755.31L1745.11 725.908H1765.81L1730.11 712.806Z" fill="#131313"/>
<path d="M1729.81 927.557V739.109" stroke="black" stroke-width="7"/>
<path d="M147.962 941L138.353 990.658L178.257 978.308L138.353 1001.82L173.657 1015.11L147.962 1009.23L201 1047.3L147.962 1020.22L122.806 1039.04L111.307 1009.23L101.085 996.707L56.9446 990.658H107.258L122.806 1009.23L147.962 941Z" fill="#3E3D3D"/>
<path d="M124.339 1025.16H113.647L73.7428 1012.81L113.647 1036.32L78.3424 1049.6L104.038 1043.73L51 1081.8L118.717 1049.6L160.625 1061.36L137.116 1036.32H154.748L124.339 1025.16Z" fill="#131313"/>
<path d="M124.083 1082.71L124 1042" stroke="black" stroke-width="7"/>
<path d="M101.271 884L112.552 942.303L65.702 927.803L112.552 955.405L71.1024 971.006L101.271 964.106L39 1008.81L101.271 977.007L130.807 999.106L144.308 964.106L156.309 949.405L208.133 942.303H149.061L130.807 964.106L101.271 884Z" fill="#565656"/>
<path d="M245.003 968L251.707 1002.65L223.867 994.029L251.707 1010.43L227.076 1019.7L245.003 1015.6L208 1042.17L245.003 1023.27L262.554 1036.4L270.577 1015.6L277.708 1006.87L308.504 1002.65H273.401L262.554 1015.6L245.003 968Z" fill="#3E3D3D"/>
<path d="M250.461 1067.48H257.921L285.761 1058.86L257.921 1075.27L282.552 1084.54L264.625 1080.44L301.628 1107L254.383 1084.54L225.145 1092.74L241.547 1075.27H229.246L250.461 1067.48Z" fill="#131313"/>
<path d="M250.639 1107.63L250.698 1079.23" stroke="black" stroke-width="7"/>
<path d="M273.555 992L265.684 1032.68L298.371 1022.56L265.684 1041.82L294.603 1052.7L273.555 1047.89L317 1079.08L273.555 1056.89L252.949 1072.31L243.529 1047.89L235.157 1037.63L199 1032.68H240.213L252.949 1047.89L273.555 992Z" fill="#565656"/>
</svg>
